inDegrees=yes
name=ik_Xsens_quaternion
DataType=double
version=3
OpenSimVersion=4.4-2022-07-23-0e9fedc
endheader
time	pelvis_tilt	pelvis_list	pelvis_rotation	pelvis_tx	pelvis_ty	pelvis_tz	hip_flexion_r	hip_adduction_r	hip_rotation_r	knee_angle_r	knee_angle_r_beta	ankle_angle_r	subtalar_angle_r	mtp_angle_r	hip_flexion_l	hip_adduction_l	hip_rotation_l	knee_angle_l	knee_angle_l_beta	ankle_angle_l	subtalar_angle_l	mtp_angle_l	lumbar_extension	lumbar_bending	lumbar_rotation	arm_flex_r	arm_add_r	arm_rot_r	elbow_flex_r	pro_sup_r	wrist_flex_r	wrist_dev_r	arm_flex_l	arm_add_l	arm_rot_l	elbow_flex_l	pro_sup_l	wrist_flex_l	wrist_dev_l
12.51666666666667	-11.68089061244233	-29.5370329347882	-13.65606525876396	0	0.93	0	44.19968152882837	-9.955803287880942	1.92899203951995e-11	60.31650554114356	1.052721614990359	-4.987395874512835	0	0	44.19968152882013	-9.955803287881679	1.282084219465431e-15	60.31650554114361	1.05272161499036	-4.987395874434067	0	0	0	0	0	0	0	0	1.36211891007321e-38	0	0	0	0	0	0	4.4896591651661e-39	0	0	0
12.53333333333333	-11.63605446757503	-29.435534444776	-13.55653100292527	0	0.93	0	44.19974688746009	-9.955815400165399	1.928490176020172e-11	60.31648477769791	1.052721252599869	-4.987400335957375	0	0	44.19974688745184	-9.955815400166138	1.282084219465431e-15	60.31648477769797	1.052721252599869	-4.987400335878633	0	0	0	0	0	0	0	0	1.204839117566276e-39	0	0	0	0	0	0	0	0	0	0
12.55	-11.60667139301338	-29.33398262403356	-13.46781034591051	0	0.93	0	44.19981142203227	-9.955827379138839	1.927991981725051e-11	60.31646429150425	1.052720895048338	-4.987404750278441	0	0	44.19981142202403	-9.955827379139578	1.282084219465431e-15	60.3164642915043	1.052720895048339	-4.98740475019973	0	0	0	0	0	0	0	0	0	0	0	0	0	0	0	0	0	0	0
12.56666666666667	-11.6014034000212	-29.23215625589659	-13.3803295698417	0	0.93	0	44.19987437769391	-9.955839088784327	1.92750173382664e-11	60.31644432283841	1.052720546529372	-4.987409067969006	0	0	44.19987437768567	-9.955839088785064	1.282084219465431e-15	60.31644432283846	1.052720546529373	-4.987409067890322	0	0	0	0	0	0	0	0	0	3.15707180360567e-38	0	0	0	0	0	2.104714535737113e-38	0	0	0
12.58333333333333	-11.60798491635049	-29.10936111198538	-13.26879573924302	0	0.93	0	44.19993571169665	-9.955850509420953	1.927020985746368e-11	60.31642487452449	1.05272020709226	-4.987413280681433	0	0	44.1999357116884	-9.955850509421687	1.282084219465431e-15	60.31642487452454	1.052720207092261	-4.987413280602776	0	0	0	0	0	0	0	0	4.735144039391206e-39	0	0	0	0	0	0	0	1.179186950600546e-39	0	0
12.6	-11.59991624417748	-28.99463559175172	-13.15142327567611	0	0.93	0	44.19999790772024	-9.955862064267947	1.926536739631409e-11	60.31640513487647	1.052719862570409	-4.987417540005774	0	0	44.19999790771199	-9.955862064268681	1.282084219465431e-15	60.31640513487652	1.05271986257041	-4.987417539927143	0	0	0	0	0	0	0	0	0	0	0	0	0	0	0	1.880406251983905e-39	0	0	0
12.61666666666667	-11.58300257357785	-28.90470899139028	-13.05160903527474	0	0.93	0	44.20006156602872	-9.955873862769588	1.926045579012286e-11	60.31638491507958	1.052719509668379	-4.987421885801027	0	0	44.20006156602047	-9.955873862770321	1.282084219465431e-15	60.31638491507963	1.05271950966838	-4.987421885722418	0	0	0	0	0	0	0	0	8.619721874624315e-40	3.860116298569646e-39	0	0	0	0	0	4.245399827278147e-41	0	0	0
12.63333333333333	-11.58512460697458	-28.83350039027286	-12.9899430368726	0	0.93	0	44.20012466596984	-9.955885584897919	1.925556387335768e-11	60.3163648972296	1.052719160290988	-4.987426205968091	0	0	44.2001246659616	-9.955885584898651	1.282084219465431e-15	60.31636489722965	1.052719160290989	-4.987426205889507	0	0	0	0	0	0	0	0	0	0	0	0	0	0	0	5.229339832599563e-39	0	0	0
12.65	-11.59597581173667	-28.7657503581963	-12.93577107585289	0	0.93	0	44.20018724005823	-9.955897218182457	1.925069984057221e-11	60.31634505387511	1.052718813959117	-4.9874304942316	0	0	44.20018724004999	-9.955897218183189	1.282084219465431e-15	60.31634505387516	1.052718813959118	-4.987430494153045	0	0	0	0	0	0	0	0	0	0	0	0	0	0	0	0	0	0	0
12.66666666666667	-11.59503381825339	-28.69061804985049	-12.87583492818397	0	0.93	0	44.20025058674511	-9.95590897797867	1.924579850656026e-11	60.3163249547718	1.052718463163588	-4.987434827171823	0	0	44.20025058673686	-9.955908977979401	1.282084219465431e-15	60.31632495477185	1.052718463163589	-4.987434827093296	0	0	0	0	0	0	0	0	2.104714535737113e-38	0	0	0	0	0	0	0	2.104714535737113e-38	0	0
12.68333333333333	-11.5775862733452	-28.63614440422522	-12.81637519191025	0	0.93	0	44.20031499715394	-9.955920899643784	1.924086430300441e-11	60.31630449474864	1.052718106068819	-4.987439215709353	0	0	44.20031499714569	-9.955920899644516	1.282084219465431e-15	60.31630449474869	1.05271810606882	-4.987439215630855	0	0	0	0	0	0	0	0	0	0	0	0	0	0	0	0	5.389149128029233e-40	0	0
12.7	-11.54873829094822	-28.60173616663557	-12.77182751685171	0	0.93	0	44.20037974847544	-9.955932867031022	1.923624238565649e-11	60.31628391725809	1.052717746923857	-4.987443618877379	0	0	44.2003797484672	-9.955932867031752	1.282084219465431e-15	60.31628391725814	1.052717746923858	-4.987443618798903	0	0	0	0	0	0	0	0	9.787735508980729e-40	0	0	0	0	0	0	1.720593412570201e-38	0	0	0
12.71666666666667	-11.51885362633288	-28.5801776831756	-12.74254913561158	0	0.93	0	44.20044395643814	-9.955944737750594	1.92307583769006e-11	60.31626351747317	1.052717390880443	-4.987447986658037	-3.727102999663096e-18	-3.989709469198255e-17	44.20044395642989	-9.955944737751322	1.282084219465431e-15	60.31626351747322	1.052717390880444	-4.987447986579947	-2.363819400087785e-18	-7.420409287752707e-17	1.693932214761314e-24	1.929703232767211e-24	5.837408133056958e-24	9.263501138088828e-14	-1.693540415351542e-13	-2.287827155556975e-13	0	0	-2.535307701085156e-15	-1.165540855914124e-16	1.569729327827642e-13	4.762991278197237e-14	-1.180144688266358e-13	2.521802405325927e-14	7.866737227207135e-14	-6.815048197552069e-15	-1.380979224252722e-16
12.73333333333333	-11.48258751628444	-28.56928092589755	-12.73013548076731	0	0.93	0	44.20050781789648	-9.955956545127281	1.922529319103474e-11	60.31624323107511	1.052717036816004	-4.987452330940947	3.4642051689444e-19	-4.792121252996853e-18	44.20050781788824	-9.955956545128009	1.282084219465431e-15	60.31624323107516	1.052717036816005	-4.987452330863782	-1.847940198293602e-19	3.123929965430343e-19	9.33789149859423e-25	1.471797188540865e-24	4.867517495561908e-24	-8.347267651378154e-14	-3.991481686837862e-14	3.84785633377289e-13	0	0	-5.156523980429137e-16	5.763170464588731e-19	6.986863820097621e-14	3.62194104155137e-14	-8.090356169552255e-14	2.871718025365685e-14	7.187451058442719e-14	6.833115109614735e-16	-2.466124996373578e-17
12.75	-11.43628230661787	-28.57169938321481	-12.71782781554375	0	0.93	0	44.20057070492801	-9.955968153038176	1.922022653074217e-11	60.31622323950641	1.052716687897307	-4.987456599720908	0	0	44.20057070491978	-9.955968153038901	1.282084219465431e-15	60.31622323950646	1.052716687897308	-4.987456599643771	0	0	0	0	0	0	0	0	0	9.288414581693846e-39	0	0	0	0	0	0	0	0	0
12.76666666666667	-11.40387954640984	-28.58238163025772	-12.7194223316167	0	0.93	0	44.20063217371976	-9.95597952173039	1.921526485396314e-11	60.31620371529345	1.052716347135507	-4.987460782941551	-2.494310885250524e-17	-8.767582798588331e-20	44.20063217371153	-9.955979521731114	1.282084219465431e-15	60.3162037152935	1.052716347135508	-4.987460782864352	-2.381137091302995e-18	9.314515184666699e-19	1.111211261489233e-24	-1.465318292789807e-16	-2.642815539127385e-24	1.323874431944496e-13	-2.784910926507888e-16	-1.454285583812013e-13	0	0	1.392329663768019e-16	-8.01185970287282e-17	7.39723253745423e-14	-4.244121266831271e-14	-6.148703752673932e-14	3.727996494774889e-14	6.298680966786999e-14	-3.023140366424685e-16	-8.264290619189409e-17
12.78333333333333	-11.39832917069438	-28.57010076443449	-12.7225614921238	0	0.93	0	44.20071270527628	-9.955994599735579	1.920868413308789e-11	60.31617831839724	1.052715903876049	-4.987466348136512	0	0	44.20071270526804	-9.955994599736304	1.282084219465431e-15	60.31617831839729	1.052715903876049	-4.987466348059347	0	0	0	0	0	0	0	0	0	0	0	0	0	0	0	2.028358551467457e-39	4.85461891538398e-40	0	0
12.8	-11.40688941314162	-28.5464596362276	-12.72066597732003	0	0.93	0	44.20077519328167	-9.956006202809441	1.920338231094172e-11	60.31615850858681	1.052715558129632	-4.987470622357319	0	0	44.20077519327344	-9.956006202810167	1.282084219465431e-15	60.31615850858687	1.052715558129633	-4.987470622280186	0	0	0	0	0	0	0	0	1.80260647267573e-40	4.967350891312209e-39	0	0	0	0	0	0	3.104594307070131e-40	0	0
